<?xml version="1.0" encoding="UTF-8"?>
<svg xmlns="http://www.w3.org/2000/svg" viewBox="0 0 1200 800">
  <defs>
    <linearGradient id="gNavy" x1="0" y1="0" x2="1" y2="1">
      <stop offset="0" stop-color="#071B35" />
      <stop offset="1" stop-color="#0B2A52" />
    </linearGradient>
    <linearGradient id="gGold" x1="0" y1="0" x2="1" y2="1">
      <stop offset="0" stop-color="#FFDD7A" />
      <stop offset="1" stop-color="#FFB800" />
    </linearGradient>
    <linearGradient id="gGreen" x1="0" y1="0" x2="1" y2="1">
      <stop offset="0" stop-color="#2BE06F" />
      <stop offset="1" stop-color="#25D366" />
    </linearGradient>
    <filter id="shadowSoft" x="-20%" y="-20%" width="140%" height="140%">
      <feDropShadow dx="0" dy="14" stdDeviation="16" flood-color="#071B35" flood-opacity="0.18" />
    </filter>
  </defs>

  <symbol id="icon-premium" viewBox="0 0 64 64">
    <path d="M32 6l18 10v16c0 14-8 22-18 26C22 54 14 46 14 32V16L32 6z" fill="url(#gGold)" />
    <path d="M32 16l10 6v10c0 9-5 14-10 16-5-2-10-7-10-16V22l10-6z" fill="#071B35" opacity="0.18" />
    <path d="M32 18l8 5v9c0 7-4 12-8 13-4-1-8-6-8-13v-9l8-5z" fill="#FFFFFF" opacity="0.88" />
  </symbol>

  <symbol id="icon-clean" viewBox="0 0 64 64">
    <path d="M18 44l26-26 8 8-26 26H18v-8z" fill="url(#gNavy)" opacity="0.9" />
    <path d="M18 52h8l26-26-8-8-26 26v8z" fill="#FFFFFF" opacity="0.82" />
    <path d="M46 18l8 8" stroke="url(#gGold)" stroke-width="6" stroke-linecap="round" />
    <path d="M12 22l4 2 2 4-2 4-4 2-4-2-2-4 2-4 4-2z" fill="url(#gGold)" />
    <path d="M52 36l3 2 2 3-2 3-3 2-3-2-2-3 2-3 3-2z" fill="url(#gGold)" opacity="0.9" />
  </symbol>

  <symbol id="icon-time" viewBox="0 0 64 64">
    <circle cx="32" cy="34" r="22" fill="#FFFFFF" />
    <circle cx="32" cy="34" r="22" fill="none" stroke="url(#gNavy)" stroke-width="6" />
    <path d="M32 34V22" stroke="url(#gGold)" stroke-width="6" stroke-linecap="round" />
    <path d="M32 34l10 6" stroke="url(#gGold)" stroke-width="6" stroke-linecap="round" />
    <path d="M22 8h20" stroke="url(#gNavy)" stroke-width="6" stroke-linecap="round" />
  </symbol>

  <symbol id="icon-paint" viewBox="0 0 64 64">
    <path d="M18 14h28l4 10v8c0 14-8 22-18 22S14 46 14 32v-8l4-10z" fill="url(#gNavy)" />
    <path d="M22 14h20l3 8H19l3-8z" fill="#FFFFFF" opacity="0.88" />
    <path d="M26 36c6-6 14 2 8 8-4 4-10 2-12-2-2-4 0-6 4-6z" fill="url(#gGold)" />
  </symbol>

  <symbol id="icon-pay" viewBox="0 0 64 64">
    <rect x="10" y="16" width="44" height="32" rx="10" fill="url(#gNavy)" />
    <rect x="10" y="24" width="44" height="6" rx="3" fill="#FFFFFF" opacity="0.88" />
    <rect x="16" y="34" width="14" height="6" rx="3" fill="url(#gGold)" />
    <rect x="34" y="36" width="14" height="4" rx="2" fill="#FFFFFF" opacity="0.7" />
  </symbol>

  <symbol id="icon-support" viewBox="0 0 64 64">
    <path d="M16 34c0-12 8-22 20-22s20 10 20 22v10c0 6-4 10-10 10h-2" fill="none" stroke="url(#gNavy)" stroke-width="6" stroke-linecap="round" />
    <rect x="10" y="30" width="10" height="16" rx="5" fill="url(#gGold)" />
    <rect x="44" y="30" width="10" height="16" rx="5" fill="url(#gGold)" />
    <rect x="28" y="46" width="16" height="8" rx="4" fill="url(#gGreen)" />
  </symbol>

  <symbol id="scene-room" viewBox="0 0 1200 800">
    <rect width="1200" height="800" fill="#F5F7FA" />
    <rect x="80" y="80" width="1040" height="640" rx="34" fill="#FFFFFF" filter="url(#shadowSoft)" />
    <rect x="120" y="140" width="720" height="38" rx="19" fill="url(#gGold)" opacity="0.25" />
    <rect x="120" y="200" width="460" height="26" rx="13" fill="#E7EEF8" />
    <rect x="120" y="260" width="520" height="18" rx="9" fill="#E7EEF8" />
    <rect x="120" y="292" width="380" height="18" rx="9" fill="#E7EEF8" />
    <rect x="120" y="560" width="420" height="70" rx="18" fill="url(#gGold)" />
    <rect x="560" y="560" width="280" height="70" rx="18" fill="#FFFFFF" stroke="#D7E0F0" />
    <rect x="860" y="170" width="220" height="440" rx="26" fill="#0B2A52" opacity="0.06" />
    <path d="M920 470c30-80 60-110 90-160" stroke="url(#gNavy)" stroke-width="14" stroke-linecap="round" opacity="0.55" />
    <path d="M962 318l70 30" stroke="url(#gGold)" stroke-width="14" stroke-linecap="round" opacity="0.9" />
    <circle cx="1005" cy="268" r="30" fill="url(#gGreen)" opacity="0.35" />
    <text x="120" y="520" font-family="Segoe UI, Arial" font-size="34" font-weight="900" fill="#071B35">Pintura interna premium</text>
  </symbol>

  <symbol id="scene-facade" viewBox="0 0 1200 800">
    <rect width="1200" height="800" fill="#F5F7FA" />
    <rect x="80" y="80" width="1040" height="640" rx="34" fill="#FFFFFF" filter="url(#shadowSoft)" />
    <rect x="160" y="210" width="880" height="420" rx="30" fill="#E9F0FF" />
    <rect x="220" y="260" width="220" height="150" rx="18" fill="#FFFFFF" />
    <rect x="500" y="260" width="480" height="54" rx="14" fill="#FFFFFF" />
    <rect x="500" y="330" width="480" height="54" rx="14" fill="#FFFFFF" />
    <rect x="500" y="400" width="480" height="54" rx="14" fill="#FFFFFF" />
    <rect x="500" y="470" width="280" height="54" rx="14" fill="#FFFFFF" />
    <rect x="160" y="210" width="880" height="82" rx="30" fill="url(#gNavy)" opacity="0.10" />
    <rect x="200" y="150" width="420" height="44" rx="22" fill="url(#gGold)" />
    <text x="224" y="182" font-family="Segoe UI, Arial" font-size="22" font-weight="900" fill="#071B35">Fachada moderna e valorizada</text>
    <path d="M880 220c-30 90-50 150-90 220" stroke="url(#gGold)" stroke-width="14" stroke-linecap="round" opacity="0.9" />
    <path d="M790 440l60 30" stroke="url(#gNavy)" stroke-width="14" stroke-linecap="round" opacity="0.55" />
  </symbol>

  <symbol id="scene-commercial" viewBox="0 0 1200 800">
    <rect width="1200" height="800" fill="#F5F7FA" />
    <rect x="80" y="80" width="1040" height="640" rx="34" fill="#FFFFFF" filter="url(#shadowSoft)" />
    <rect x="120" y="150" width="960" height="520" rx="30" fill="#F1F5FF" />
    <rect x="160" y="190" width="360" height="80" rx="18" fill="url(#gNavy)" opacity="0.10" />
    <rect x="160" y="290" width="620" height="22" rx="11" fill="#DCE6FA" />
    <rect x="160" y="324" width="520" height="22" rx="11" fill="#DCE6FA" />
    <rect x="160" y="358" width="580" height="22" rx="11" fill="#DCE6FA" />
    <rect x="160" y="520" width="440" height="76" rx="18" fill="url(#gGreen)" />
    <rect x="620" y="520" width="300" height="76" rx="18" fill="#FFFFFF" stroke="#D7E0F0" />
    <circle cx="960" cy="230" r="84" fill="url(#gGold)" opacity="0.22" />
    <text x="160" y="470" font-family="Segoe UI, Arial" font-size="34" font-weight="900" fill="#071B35">Ambiente comercial pronto</text>
  </symbol>
</svg>
